{
  "accessors": [
    {
      "bufferView": 3,
      "componentType": 5126,
      "count": 32703,
      "max": [
        74.73754119873047,
        158.02813720703125,
        230.83399963378906
      ],
      "min": [
        -62.07184600830078,
        105.1097412109375,
        -20.710344314575195
      ],
      "type": "VEC3"
    },
    {
      "bufferView": 3,
      "byteOffset": 392436,
      "componentType": 5126,
      "count": 32703,
      "max": [
        0.9999869465827942,
        0.999992847442627,
        0.9999405145645142
      ],
      "min": [
        -0.9999080896377563,
        -0.9999599456787109,
        -0.9997018575668335
      ],
      "type": "VEC3"
    },
    {
      "bufferView": 2,
      "componentType": 5126,
      "count": 32703,
      "max": [
        0.9980409741401672,
        0.9889330267906189
      ],
      "min": [
        0.0019499999471008778,
        0.0019499999471008778
      ],
      "type": "VEC2"
    },
    {
      "bufferView": 1,
      "componentType": 5125,
      "count": 187296,
      "type": "SCALAR"
    },
    {
      "bufferView": 5,
      "componentType": 5126,
      "count": 69,
      "max": [
        1.0,
        0.9980577826499939,
        0.987537682056427,
        0.0,
        0.9989179968833923,
        1.0,
        0.3435784578323364,
        0.0,
        0.6976087689399719,
        0.9974064230918884,
        1.0,
        0.0,
        156.19009399414063,
        165.0267333984375,
        153.17283630371094,
        1.0
      ],
      "min": [
        -0.9901741147041321,
        -0.9980577826499939,
        -0.9851335883140564,
        0.0,
        -0.9996242523193359,
        -0.9343250393867493,
        -0.9990062713623047,
        0.0,
        -0.7247741222381592,
        -0.9971984028816223,
        -0.9495394229888916,
        0.0,
        -134.67349243164063,
        -211.13877868652344,
        -184.30679321289063,
        1.0
      ],
      "type": "MAT4"
    },
    {
      "bufferView": 0,
      "componentType": 5123,
      "count": 32703,
      "type": "VEC4"
    },
    {
      "bufferView": 4,
      "componentType": 5126,
      "count": 32703,
      "max": [
        1.0,
        0.49995192885398865,
        0.33063846826553345,
        0.24066969752311707
      ],
      "min": [
        0.26558542251586914,
        0.0,
        0.0,
        0.0
      ],
      "type": "VEC4"
    },
    {
      "bufferView": 6,
      "componentType": 5126,
      "count": 750,
      "max": [
        12.483333587646484
      ],
      "min": [
        0.0
      ],
      "type": "SCALAR"
    },
    {
      "bufferView": 7,
      "componentType": 5126,
      "count": 750,
      "max": [
        -0.8455483317375183,
        12.772233963012695,
        129.41925048828125
      ],
      "min": [
        -2.065666913986206,
        11.191953659057617,
        128.95904541015625
      ],
      "type": "VEC3"
    },
    {
      "bufferView": 6,
      "byteOffset": 3000,
      "componentType": 5126,
      "count": 750,
      "max": [
        12.483333587646484
      ],
      "min": [
        0.0
      ],
      "type": "SCALAR"
    },
    {
      "bufferView": 8,
      "componentType": 5126,
      "count": 750,
      "max": [
        -0.687427282333374,
        -0.023033561185002327,
        0.019829753786325455,
        0.725551187992096
      ],
      "min": [
        -0.691476583480835,
        -0.027653641998767853,
        0.016543500125408173,
        0.7216801047325134
      ],
      "type": "VEC4"
    },
    {
      "bufferView": 6,
      "byteOffset": 6000,
      "componentType": 5126,
      "count": 750,
      "max": [
        12.483333587646484
      ],
      "min": [
        0.0
      ],
      "type": "SCALAR"
    },
    {
      "bufferView": 8,
      "byteOffset": 12000,
      "componentType": 5126,
      "count": 750,
      "max": [
        -0.025967147201299667,
        0.018470829352736473,
        -0.01007326040416956,
        0.9995348453521729
      ],
      "min": [
        -0.03457314521074295,
        0.008428829722106457,
        -0.020799679681658745,
        0.9991079568862915
      ],
      "type": "VEC4"
    },
    {
      "bufferView": 6,
      "byteOffset": 9000,
      "componentType": 5126,
      "count": 750,
      "max": [
        12.483333587646484
      ],
      "min": [
        0.0
      ],
      "type": "SCALAR"
    },
    {
      "bufferView": 8,
      "byteOffset": 24000,
      "componentType": 5126,
      "count": 750,
      "max": [
        -0.021803434938192368,
        0.010855292901396751,
        0.0023908012080937624,
        0.9997289180755615
      ],
      "min": [
        -0.02859155274927616,
        0.007573616690933704,
        -0.00038680550642311573,
        0.9995594620704651
      ],
      "type": "VEC4"
    },
    {
      "bufferView": 6,
      "byteOffset": 12000,
      "componentType": 5126,
      "count": 750,
      "max": [
        12.483333587646484
      ],
      "min": [
        0.0
      ],
      "type": "SCALAR"
    },
    {
      "bufferView": 8,
      "byteOffset": 36000,
      "componentType": 5126,
      "count": 750,
      "max": [
        -0.021784119307994843,
        0.007796199526637793,
        0.002477791393175721,
        0.999748945236206
      ],
      "min": [
        -0.028577134013175964,
        0.0044486611150205135,
        -0.00020197790581732988,
        0.9995796084403992
      ],
      "type": "VEC4"
    },
    {
      "bufferView": 6,
      "byteOffset": 15000,
      "componentType": 5126,
      "count": 750,
      "max": [
        12.483333587646484
      ],
      "min": [
        0.0
      ],
      "type": "SCALAR"
    },
    {
      "bufferView": 8,
      "byteOffset": 48000,
      "componentType": 5126,
      "count": 750,
      "max": [
        0.12590886652469635,
        0.03443720191717148,
        0.013852794654667377,
        0.9941123723983765
      ],
      "min": [
        0.10455676913261414,
        -0.03369707614183426,
        -0.00479035684838891,
        0.9914078116416931
      ],
      "type": "VEC4"
    },
    {
      "bufferView": 6,
      "byteOffset": 18000,
      "componentType": 5126,
      "count": 750,
      "max": [
        12.483333587646484
      ],
      "min": [
        0.0
      ],
      "type": "SCALAR"
    },
    {
      "bufferView": 8,
      "byteOffset": 60000,
      "componentType": 5126,
      "count": 750,
      "max": [
        -0.41119638085365295,
        -0.5028554201126099,
        -0.5854994654655457,
        0.4520493149757385
      ],
      "min": [
        -0.4459722340106964,
        -0.5318595767021179,
        -0.5938485860824585,
        0.44238337874412537
      ],
      "type": "VEC4"
    },
    {
      "bufferView": 6,
      "byteOffset": 21000,
      "componentType": 5126,
      "count": 750,
      "max": [
        12.483333587646484
      ],
      "min": [
        0.0
      ],
      "type": "SCALAR"
    },
    {
      "bufferView": 8,
      "byteOffset": 72000,
      "componentType": 5126,
      "count": 750,
      "max": [
        -0.5421754717826843,
        0.1558343917131424,
        0.11978145688772202,
        0.8241546154022217
      ],
      "min": [
        -0.5724605917930603,
        0.14276359975337982,
        0.07739954441785812,
        0.7975020408630371
      ],
      "type": "VEC4"
    },
    {
      "bufferView": 6,
      "byteOffset": 24000,
      "componentType": 5126,
      "count": 750,
      "max": [
        12.483333587646484
      ],
      "min": [
        0.0
      ],
      "type": "SCALAR"
    },
    {
      "bufferView": 8,
      "byteOffset": 84000,
      "componentType": 5126,
      "count": 750,
      "max": [
        2.050836656053434e-07,
        1.6707723204945069e-07,
        -0.9084303975105286,
        0.41803622245788574
      ],
      "min": [
        -2.571021013864083e-07,
        -3.3432880286454747e-07,
        -0.9160844087600708,
        0.4009854197502136
      ],
      "type": "VEC4"
    },
    {
      "bufferView": 6,
      "byteOffset": 27000,
      "componentType": 5126,
      "count": 750,
      "max": [
        12.483333587646484
      ],
      "min": [
        0.0
      ],
      "type": "SCALAR"
    },
    {
      "bufferView": 8,
      "byteOffset": 96000,
      "componentType": 5126,
      "count": 750,
      "max": [
        -0.29352474212646484,
        -0.22036215662956238,
        0.1576038897037506,
        0.9186385869979858
      ],
      "min": [
        -0.41057175397872925,
        -0.3178281784057617,
        0.13009916245937347,
        0.8429723978042603
      ],
      "type": "VEC4"
    },
    {
      "bufferView": 6,
      "byteOffset": 30000,
      "componentType": 5126,
      "count": 750,
      "max": [
        12.483333587646484
      ],
      "min": [
        0.0
      ],
      "type": "SCALAR"
    },
    {
      "bufferView": 8,
      "byteOffset": 108000,
      "componentType": 5126,
      "count": 750,
      "max": [
        -0.44085967540740967,
        0.517473042011261,
        0.5627142190933228,
        0.4942091405391693
      ],
      "min": [
        -0.4626620411872864,
        0.49993205070495605,
        0.5401565432548523,
        0.47033733129501343
      ],
      "type": "VEC4"
    },
    {
      "bufferView": 6,
      "byteOffset": 33000,
      "componentType": 5126,
      "count": 750,
      "max": [
        12.483333587646484
      ],
      "min": [
        0.0
      ],
      "type": "SCALAR"
    },
    {
      "bufferView": 8,
      "byteOffset": 120000,
      "componentType": 5126,
      "count": 750,
      "max": [
        -0.5307709574699402,
        -0.13635283708572388,
        -0.0049585746601223946,
        0.8337884545326233
      ],
      "min": [
        -0.5497093796730042,
        -0.15996792912483215,
        -0.05633879080414772,
        0.8222264647483826
      ],
      "type": "VEC4"
    },
    {
      "bufferView": 6,
      "byteOffset": 36000,
      "componentType": 5126,
      "count": 750,
      "max": [
        12.483333587646484
      ],
      "min": [
        0.0
      ],
      "type": "SCALAR"
    },
    {
      "bufferView": 8,
      "byteOffset": 132000,
      "componentType": 5126,
      "count": 750,
      "max": [
        2.1638854263983376e-07,
        3.2842055475157395e-07,
        0.8985303044319153,
        0.4462108612060547
      ],
      "min": [
        -2.1844759601208352e-07,
        -9.11193041019942e-08,
        0.8949278593063354,
        0.4389115571975708
      ],
      "type": "VEC4"
    },
    {
      "bufferView": 6,
      "byteOffset": 39000,
      "componentType": 5126,
      "count": 750,
      "max": [
        12.483333587646484
      ],
      "min": [
        0.0
      ],
      "type": "SCALAR"
    },
    {
      "bufferView": 8,
      "byteOffset": 144000,
      "componentType": 5126,
      "count": 750,
      "max": [
        0.42241165041923523,
        -0.2250427007675171,
        0.09731515496969223,
        -0.8724534511566162
      ],
      "min": [
        0.40297603607177734,
        -0.24222296476364136,
        0.08125847578048706,
        -0.8805768489837646
      ],
      "type": "VEC4"
    },
    {
      "bufferView": 6,
      "byteOffset": 42000,
      "componentType": 5126,
      "count": 750,
      "max": [
        12.483333587646484
      ],
      "min": [
        0.0
      ],
      "type": "SCALAR"
    },
    {
      "bufferView": 8,
      "byteOffset": 156000,
      "componentType": 5126,
      "count": 750,
      "max": [
        0.7757041454315186,
        0.08971627801656723,
        0.5986091494560242,
        0.18843574821949005
      ],
      "min": [
        0.775492250919342,
        0.08031255006790161,
        0.5959610939025879,
        0.1818126142024994
      ],
      "type": "VEC4"
    },
    {
      "bufferView": 6,
      "byteOffset": 45000,
      "componentType": 5126,
      "count": 750,
      "max": [
        12.483333587646484
      ],
      "min": [
        0.0
      ],
      "type": "SCALAR"
    },
    {
      "bufferView": 8,
      "byteOffset": 168000,
      "componentType": 5126,
      "count": 750,
      "max": [
        -0.09040304273366928,
        0.04049929603934288,
        0.24517998099327087,
        0.9692267775535583
      ],
      "min": [
        -0.09271792322397232,
        0.037746209651231766,
        0.22551745176315308,
        0.9643112421035767
      ],
      "type": "VEC4"
    },
    {
      "bufferView": 6,
      "byteOffset": 48000,
      "componentType": 5126,
      "count": 750,
      "max": [
        12.483333587646484
      ],
      "min": [
        0.0
      ],
      "type": "SCALAR"
    },
    {
      "bufferView": 8,
      "byteOffset": 180000,
      "componentType": 5126,
      "count": 750,
      "max": [
        0.40758177638053894,
        0.5429810881614685,
        -0.31677141785621643,
        0.6690126657485962
      ],
      "min": [
        0.40042465925216675,
        0.5315966010093689,
        -0.32858702540397644,
        0.6611323356628418
      ],
      "type": "VEC4"
    },
    {
      "bufferView": 6,
      "byteOffset": 51000,
      "componentType": 5126,
      "count": 750,
      "max": [
        12.483333587646484
      ],
      "min": [
        0.0
      ],
      "type": "SCALAR"
    },
    {
      "bufferView": 8,
      "byteOffset": 192000,
      "componentType": 5126,
      "count": 750,
      "max": [
        0.775890052318573,
        -0.034201785922050476,
        -0.6272139549255371,
        0.06066206470131874
      ],
      "min": [
        0.773848295211792,
        -0.039636630564928055,
        -0.6297041177749634,
        0.05477380007505417
      ],
      "type": "VEC4"
    },
    {
      "bufferView": 6,
      "byteOffset": 54000,
      "componentType": 5126,
      "count": 750,
      "max": [
        12.483333587646484
      ],
      "min": [
        0.0
      ],
      "type": "SCALAR"
    },
    {
      "bufferView": 8,
      "byteOffset": 204000,
      "componentType": 5126,
      "count": 750,
      "max": [
        -0.030772127211093903,
        0.06848220527172089,
        -0.10166280716657639,
        0.9920287728309631
      ],
      "min": [
        -0.033074669539928436,
        0.06563287228345871,
        -0.1050567477941513,
        0.9917329549789429
      ],
      "type": "VEC4"
    },
    {
      "bufferView": 6,
      "byteOffset": 57000,
      "componentType": 5126,
      "count": 750,
      "max": [
        12.483333587646484
      ],
      "min": [
        0.0
      ],
      "type": "SCALAR"
    },
    {
      "bufferView": 8,
      "byteOffset": 216000,
      "componentType": 5126,
      "count": 750,
      "max": [
        0.1704266220331192,
        -0.4548361003398895,
        0.4390295445919037,
        0.7647114992141724
      ],
      "min": [
        0.16566795110702515,
        -0.46563640236854553,
        0.41492393612861633,
        0.7557501792907715
      ],
      "type": "VEC4"
    }
  ],
  "animations": [
    {
      "channels": [
        {
          "sampler": 0,
          "target": {
            "node": 4,
            "path": "translation"
          }
        },
        {
          "sampler": 1,
          "target": {
            "node": 4,
            "path": "rotation"
          }
        },
        {
          "sampler": 2,
          "target": {
            "node": 8,
            "path": "rotation"
          }
        },
        {
          "sampler": 3,
          "target": {
            "node": 9,
            "path": "rotation"
          }
        },
        {
          "sampler": 4,
          "target": {
            "node": 10,
            "path": "rotation"
          }
        },
        {
          "sampler": 5,
          "target": {
            "node": 11,
            "path": "rotation"
          }
        },
        {
          "sampler": 6,
          "target": {
            "node": 38,
            "path": "rotation"
          }
        },
        {
          "sampler": 7,
          "target": {
            "node": 39,
            "path": "rotation"
          }
        },
        {
          "sampler": 8,
          "target": {
            "node": 41,
            "path": "rotation"
          }
        },
        {
          "sampler": 9,
          "target": {
            "node": 43,
            "path": "rotation"
          }
        },
        {
          "sampler": 10,
          "target": {
            "node": 13,
            "path": "rotation"
          }
        },
        {
          "sampler": 11,
          "target": {
            "node": 14,
            "path": "rotation"
          }
        },
        {
          "sampler": 12,
          "target": {
            "node": 16,
            "path": "rotation"
          }
        },
        {
          "sampler": 13,
          "target": {
            "node": 18,
            "path": "rotation"
          }
        },
        {
          "sampler": 14,
          "target": {
            "node": 63,
            "path": "rotation"
          }
        },
        {
          "sampler": 15,
          "target": {
            "node": 65,
            "path": "rotation"
          }
        },
        {
          "sampler": 16,
          "target": {
            "node": 66,
            "path": "rotation"
          }
        },
        {
          "sampler": 17,
          "target": {
            "node": 69,
            "path": "rotation"
          }
        },
        {
          "sampler": 18,
          "target": {
            "node": 71,
            "path": "rotation"
          }
        },
        {
          "sampler": 19,
          "target": {
            "node": 72,
            "path": "rotation"
          }
        }
      ],
      "name": "Laying Idle",
      "samplers": [
        {
          "input": 7,
          "interpolation": "LINEAR",
          "output": 8
        },
        {
          "input": 9,
          "interpolation": "LINEAR",
          "output": 10
        },
        {
          "input": 11,
          "interpolation": "LINEAR",
          "output": 12
        },
        {
          "input": 13,
          "interpolation": "LINEAR",
          "output": 14
        },
        {
          "input": 15,
          "interpolation": "LINEAR",
          "output": 16
        },
        {
          "input": 17,
          "interpolation": "LINEAR",
          "output": 18
        },
        {
          "input": 19,
          "interpolation": "LINEAR",
          "output": 20
        },
        {
          "input": 21,
          "interpolation": "LINEAR",
          "output": 22
        },
        {
          "input": 23,
          "interpolation": "LINEAR",
          "output": 24
        },
        {
          "input": 25,
          "interpolation": "LINEAR",
          "output": 26
        },
        {
          "input": 27,
          "interpolation": "LINEAR",
          "output": 28
        },
        {
          "input": 29,
          "interpolation": "LINEAR",
          "output": 30
        },
        {
          "input": 31,
          "interpolation": "LINEAR",
          "output": 32
        },
        {
          "input": 33,
          "interpolation": "LINEAR",
          "output": 34
        },
        {
          "input": 35,
          "interpolation": "LINEAR",
          "output": 36
        },
        {
          "input": 37,
          "interpolation": "LINEAR",
          "output": 38
        },
        {
          "input": 39,
          "interpolation": "LINEAR",
          "output": 40
        },
        {
          "input": 41,
          "interpolation": "LINEAR",
          "output": 42
        },
        {
          "input": 43,
          "interpolation": "LINEAR",
          "output": 44
        },
        {
          "input": 45,
          "interpolation": "LINEAR",
          "output": 46
        }
      ]
    }
  ],
  "asset": {
    "extras": {
      "author": "Dakta.Grower.Nzl (https://sketchfab.com/Dakta.Grower.Nzl)",
      "license": "CC-BY-4.0 (http://creativecommons.org/licenses/by/4.0/)",
      "source": "https://sketchfab.com/3d-models/0pupxgemrt0nhx6gd7h5svah2--laying-idle-5e16720941194185be061c7905f50227",
      "title": "0PUPXGEMRT0NHX6GD7H5SVAH2_ Laying Idle"
    },
    "generator": "Sketchfab-16.73.0",
    "version": "2.0"
  },
  "bufferViews": [
    {
      "buffer": 0,
      "byteLength": 261624,
      "byteStride": 8,
      "name": "shortBufferViews",
      "target": 34962
    },
    {
      "buffer": 0,
      "byteLength": 749184,
      "byteOffset": 261624,
      "name": "floatBufferViews",
      "target": 34963
    },
    {
      "buffer": 0,
      "byteLength": 261624,
      "byteOffset": 1010808,
      "byteStride": 8,
      "name": "floatBufferViews",
      "target": 34962
    },
    {
      "buffer": 0,
      "byteLength": 784872,
      "byteOffset": 1272432,
      "byteStride": 12,
      "name": "floatBufferViews",
      "target": 34962
    },
    {
      "buffer": 0,
      "byteLength": 523248,
      "byteOffset": 2057304,
      "byteStride": 16,
      "name": "floatBufferViews",
      "target": 34962
    },
    {
      "buffer": 0,
      "byteLength": 4416,
      "byteOffset": 2580552,
      "name": "floatBufferViews"
    },
    {
      "buffer": 0,
      "byteLength": 60000,
      "byteOffset": 2584968,
      "name": "floatBufferViews"
    },
    {
      "buffer": 0,
      "byteLength": 9000,
      "byteOffset": 2644968,
      "byteStride": 12,
      "name": "floatBufferViews"
    },
    {
      "buffer": 0,
      "byteLength": 228000,
      "byteOffset": 2653968,
      "byteStride": 16,
      "name": "floatBufferViews"
    }
  ],
  "buffers": [
    {
      "byteLength": 2881968,
      "uri": "scene.bin"
    }
  ],
  "images": [
    {
      "uri": "textures/TexMap_baseColor.png"
    }
  ],
  "materials": [
    {
      "doubleSided": true,
      "name": "TexMap",
      "pbrMetallicRoughness": {
        "baseColorFactor": [
          0.445201,
          0.445201,
          0.445201,
          1.0
        ],
        "baseColorTexture": {
          "index": 0
        },
        "metallicFactor": 0.0
      }
    }
  ],
  "meshes": [
    {
      "name": "Object_0",
      "primitives": [
        {
          "attributes": {
            "JOINTS_0": 5,
            "NORMAL": 1,
            "POSITION": 0,
            "TEXCOORD_0": 2,
            "WEIGHTS_0": 6
          },
          "indices": 3,
          "material": 0,
          "mode": 4
        }
      ]
    }
  ],
  "nodes": [
    {
      "children": [
        1
      ],
      "matrix": [
        1.0,
        0.0,
        0.0,
        0.0,
        0.0,
        2.220446049250313e-16,
        -1.0,
        0.0,
        0.0,
        1.0,
        2.220446049250313e-16,
        0.0,
        0.0,
        0.0,
        0.0,
        1.0
      ],
      "name": "Sketchfab_model"
    },
    {
      "children": [
        2
      ],
      "name": "root"
    },
    {
      "children": [
        3
      ],
      "matrix": [
        1.0,
        0.0,
        0.0,
        0.0,
        0.0,
        2.220446049250313e-16,
        1.0,
        0.0,
        0.0,
        -1.0,
        2.220446049250313e-16,
        0.0,
        0.0,
        0.0,
        0.0,
        1.0
      ],
      "name": "GLTF_SceneRootNode"
    },
    {
      "children": [
        4
      ],
      "name": "_70"
    },
    {
      "children": [
        5
      ],
      "name": "root_69",
      "rotation": [
        -0.6914477944374084,
        -0.026013538241386414,
        0.01715860143303871,
        0.7217540144920349
      ],
      "translation": [
        -1.9782418012619019,
        12.71295166015625,
        129.40919494628906
      ]
    },
    {
      "children": [
        6,
        77,
        75
      ],
      "name": "GLTF_created_0"
    },
    {
      "children": [
        7
      ],
      "name": "GLTF_created_0_rootJoint"
    },
    {
      "children": [
        8,
        63,
        69
      ],
      "name": "rootx_68",
      "rotation": [
        3.4635316836784114e-09,
        -1.4632345255449763e-06,
        -5.067959059682457e-15,
        1.0
      ],
      "translation": [
        0.8787815570831299,
        130.48619079589844,
        -3.3053550720214844
      ]
    },
    {
      "children": [
        9
      ],
      "name": "spine_01x_61",
      "rotation": [
        -0.02839561179280281,
        0.010049453936517239,
        -0.011891660280525684,
        0.9994755983352661
      ],
      "scale": [
        1.0,
        0.9999999403953552,
        1.0
      ],
      "translation": [
        -3.84554869015119e-06,
        19.444580078125,
        -1.314057469367981
      ]
    },
    {
      "children": [
        10
      ],
      "name": "spine_02x_60",
      "rotation": [
        -0.023661665618419647,
        0.008023330010473728,
        0.0011333436705172062,
        0.9996871948242188
      ],
      "scale": [
        0.9999998807907104,
        0.9999999403953552,
        1.0
      ],
      "translation": [
        -1.837637264578973e-09,
        19.48894691467285,
        -2.9178121963013837e-07
      ]
    },
    {
      "children": [
        11,
        13,
        38
      ],
      "name": "spine_03x_59",
      "rotation": [
        -0.023643052205443382,
        0.00490666413679719,
        0.0012095934944227338,
        0.9997076988220215
      ],
      "scale": [
        1.0,
        1.0000001192092896,
        1.0
      ],
      "translation": [
        -1.8849637406503916e-09,
        19.488948822021484,
        7.791722964611836e-07
      ]
    },
    {
      "children": [
        12
      ],
      "name": "neckx_8",
      "rotation": [
        0.10820665210485458,
        0.0051367441192269325,
        0.002364854793995619,
        0.9941123723983765
      ],
      "scale": [
        1.0,
        1.0000001192092896,
        1.0
      ],
      "translation": [
        5.549301018703545e-10,
        19.48893165588379,
        -8.836493179842364e-06
      ]
    },
    {
      "name": "headx_7",
      "rotation": [
        -0.04017375782132149,
        -0.006754677277058363,
        -0.00026885297847911716,
        0.9991698265075684
      ],
      "scale": [
        0.9999999403953552,
        0.9999998807907104,
        1.0
      ],
      "translation": [
        2.8781764527252562e-08,
        15.637635231018066,
        -2.35415541283146e-06
      ]
    },
    {
      "children": [
        14
      ],
      "name": "shoulderr_58",
      "rotation": [
        -0.45282262563705444,
        0.5073980689048767,
        0.5505844950675964,
        0.48410308361053467
      ],
      "translation": [
        -7.580765247344971,
        4.83627986907959,
        1.9647434949874878
      ]
    },
    {
      "children": [
        15,
        16
      ],
      "name": "arm_stretchr_57",
      "rotation": [
        -0.5373157262802124,
        -0.14519518613815308,
        -0.025645770132541656,
        0.8303929567337036
      ],
      "scale": [
        0.9999999403953552,
        1.0000001192092896,
        1.0
      ],
      "translation": [
        -4.1821618879112066e-07,
        20.1059513092041,
        0.0
      ]
    },
    {
      "name": "arm_twistr_56",
      "rotation": [
        -7.083778541527863e-08,
        4.906382145009047e-08,
        -1.5451997015247798e-08,
        1.0
      ],
      "scale": [
        1.0,
        1.0,
        1.0000001192092896
      ],
      "translation": [
        -1.4204786111804424e-06,
        4.4463340600486845e-06,
        8.532279025530443e-06
      ]
    },
    {
      "children": [
        17,
        18
      ],
      "name": "forearm_stretchr_55",
      "rotation": [
        3.2371985980717e-08,
        9.59320374249728e-08,
        0.8965949416160583,
        0.44285160303115845
      ],
      "scale": [
        1.0000001192092896,
        0.9999999403953552,
        1.0000001192092896
      ],
      "translation": [
        -1.4580286915588658e-06,
        33.12133026123047,
        4.8761926336737815e-06
      ]
    },
    {
      "name": "forearm_twistr_54",
      "rotation": [
        6.497351101586446e-09,
        0.07662339508533478,
        -4.916068441218613e-09,
        0.9970601201057434
      ],
      "scale": [
        1.0,
        1.0000001192092896,
        0.9999998807907104
      ],
      "translation": [
        1.1020383681170642e-06,
        16.98480224609375,
        -1.0615216524456628e-05
      ]
    },
    {
      "children": [
        19,
        22,
        26,
        30,
        34
      ],
      "name": "handr_53",
      "rotation": [
        0.4164852499961853,
        -0.23366095125675201,
        0.09087172150611877,
        -0.8738906979560852
      ],
      "scale": [
        1.0,
        1.0000001192092896,
        0.9999998211860657
      ],
      "translation": [
        7.0648907239956316e-06,
        33.969627380371094,
        0.012738827615976334
      ]
    },
    {
      "children": [
        20
      ],
      "name": "thumb1r_40",
      "rotation": [
        0.21339040994644165,
        -0.5151274800300598,
        0.3219740390777588,
        0.7651411294937134
      ],
      "scale": [
        0.9999999403953552,
        0.9999997615814209,
        0.9999998211860657
      ],
      "translation": [
        -4.406106472015381,
        5.696815013885498,
        -1.2267322540283203
      ]
    },
    {
      "children": [
        21
      ],
      "name": "thumb2r_39",
      "rotation": [
        -0.2692282199859619,
        0.08140616863965988,
        -0.022642388939857483,
        0.9593625664710999
      ],
      "scale": [
        0.9999999403953552,
        1.0000001192092896,
        1.0
      ],
      "translation": [
        -5.634067747450899e-06,
        6.686440467834473,
        -1.1660314157779794e-05
      ]
    },
    {
      "name": "thumb3r_38",
      "scale": [
        0.9999999403953552,
        1.0,
        1.0
      ],
      "translation": [
        3.0632490961579606e-06,
        3.2908732891082764,
        7.824208296369761e-06
      ]
    },
    {
      "children": [
        23
      ],
      "name": "XR2_37",
      "rotation": [
        0.014154026284813881,
        -2.1746094716945663e-05,
        -0.0015240695793181658,
        0.9998986721038818
      ],
      "scale": [
        1.0000001192092896,
        0.9999999403953552,
        1.0000001192092896
      ],
      "translation": [
        -2.675217628479004,
        4.54820442199707,
        -0.30124664306640625
      ]
    },
    {
      "children": [
        24
      ],
      "name": "index1_baser_36",
      "rotation": [
        -0.13769793510437012,
        -0.007710135076195002,
        0.04161735251545906,
        0.9895695447921753
      ],
      "scale": [
        0.9999998807907104,
        0.9999998807907104,
        0.9999999403953552
      ],
      "translation": [
        5.81170115765417e-06,
        8.369555473327637,
        -3.4283409604540793e-06
      ]
    },
    {
      "children": [
        25
      ],
      "name": "index1r_35",
      "rotation": [
        -4.051598168075543e-08,
        -0.004683464299887419,
        -3.7022019228061254e-08,
        0.9999890327453613
      ],
      "scale": [
        0.9999999403953552,
        1.0,
        1.0
      ],
      "translation": [
        4.434619313542498e-06,
        4.435483932495117,
        3.803942945523886e-06
      ]
    },
    {
      "name": "index2r_34",
      "rotation": [
        -0.005069808103144169,
        0.0012647939147427678,
        -0.0003543378261383623,
        0.9999862909317017
      ],
      "scale": [
        1.0000001192092896,
        1.0,
        1.0
      ],
      "translation": [
        -1.0478519470780157e-05,
        4.193359375,
        -1.167158734460827e-05
      ]
    },
    {
      "children": [
        27
      ],
      "name": "XR3_52",
      "rotation": [
        0.006496054586023092,
        -0.0002665504580363631,
        -0.04098458215594292,
        0.9991386532783508
      ],
      "scale": [
        1.0,
        0.9999999403953552,
        1.0000001192092896
      ],
      "translation": [
        -0.683922529220581,
        4.699431896209717,
        -0.1085924282670021
      ]
    },
    {
      "children": [
        28
      ],
      "name": "middle1_baser_51",
      "rotation": [
        -0.05889984220266342,
        -0.007309507578611374,
        0.002684743143618107,
        0.9982336163520813
      ],
      "scale": [
        1.0,
        1.0,
        0.9999998807907104
      ],
      "translation": [
        -2.9594623356388183e-06,
        8.351192474365234,
        6.815646884206217e-06
      ]
    },
    {
      "children": [
        29
      ],
      "name": "middle1r_50",
      "rotation": [
        -0.3071979284286499,
        0.0015576902078464627,
        -0.02625652402639389,
        0.9512820839881897
      ],
      "scale": [
        0.9999998807907104,
        1.0,
        0.9999999403953552
      ],
      "translation": [
        1.4831807959581056e-07,
        4.862238883972168,
        -6.088458121666918e-06
      ]
    },
    {
      "name": "middle2r_49",
      "rotation": [
        -0.13103783130645752,
        0.0008687929366715252,
        -0.014390243217349052,
        0.9912726283073425
      ],
      "scale": [
        1.0000001192092896,
        1.0,
        1.0
      ],
      "translation": [
        7.580662895634305e-06,
        4.283699989318848,
        -2.156534037567326e-06
      ]
    },
    {
      "children": [
        31
      ],
      "name": "XR0_48",
      "rotation": [
        -0.021843109279870987,
        0.0018894237000495195,
        -0.08616446703672409,
        0.9960397481918335
      ],
      "scale": [
        1.0,
        0.9999998211860657,
        1.0000001192092896
      ],
      "translation": [
        1.5835928916931152,
        4.5594162940979,
        -0.07731848210096359
      ]
    },
    {
      "children": [
        32
      ],
      "name": "ring1_baser_47",
      "rotation": [
        -0.03627749904990196,
        -0.002249128883704543,
        0.005050523206591606,
        0.9993264675140381
      ],
      "translation": [
        6.761445661140897e-07,
        8.048078536987305,
        -3.6419050957192667e-06
      ]
    },
    {
      "children": [
        33
      ],
      "name": "ring1r_46",
      "rotation": [
        -0.3071979284286499,
        0.0015576902078464627,
        -0.02625652402639389,
        0.9512820839881897
      ],
      "scale": [
        0.9999999403953552,
        0.9999998807907104,
        0.9999999403953552
      ],
      "translation": [
        -1.5673276720917784e-06,
        4.190202713012695,
        2.940728336398024e-06
      ]
    },
    {
      "name": "ring2r_45",
      "rotation": [
        0.09619930386543274,
        -0.0012740010861307383,
        0.008269180543720722,
        0.9953269362449646
      ],
      "scale": [
        1.0000001192092896,
        0.9999998807907104,
        1.0
      ],
      "translation": [
        -1.1795179943874246e-07,
        3.9249346256256104,
        9.86500623412212e-08
      ]
    },
    {
      "children": [
        35
      ],
      "name": "XR1_44",
      "rotation": [
        -0.06651777029037476,
        0.009213737212121487,
        -0.13689719140529633,
        0.98830646276474
      ],
      "scale": [
        1.0000001192092896,
        1.0,
        1.0
      ],
      "translation": [
        2.4984424114227295,
        3.3253185749053955,
        -0.22024871408939362
      ]
    },
    {
      "children": [
        36
      ],
      "name": "pinky1_baser_43",
      "rotation": [
        -0.061520591378211975,
        0.004902724642306566,
        0.046454016119241714,
        0.9970121383666992
      ],
      "scale": [
        1.0,
        1.0000001192092896,
        1.0000001192092896
      ],
      "translation": [
        -2.902333108067978e-06,
        8.748346328735352,
        -8.58892235555686e-06
      ]
    },
    {
      "children": [
        37
      ],
      "name": "pinky1r_42",
      "rotation": [
        -0.27712541818618774,
        0.00785357877612114,
        -0.030594952404499054,
        0.9603145122528076
      ],
      "scale": [
        0.9999999403953552,
        1.0,
        1.0
      ],
      "translation": [
        -3.971899332100293e-06,
        1.8568378686904907,
        1.0695373930502683e-05
      ]
    },
    {
      "name": "pinky2r_41",
      "rotation": [
        0.10380367189645767,
        -0.0019886235240846872,
        0.012288686819374561,
        0.9945198893547058
      ],
      "scale": [
        0.9999998807907104,
        1.0,
        1.0
      ],
      "translation": [
        7.181939736256027e-07,
        3.459080696105957,
        8.648645177800063e-08
      ]
    },
    {
      "children": [
        39
      ],
      "name": "shoulderl_33",
      "rotation": [
        -0.42918461561203003,
        -0.5171628594398499,
        -0.590151846408844,
        0.4472850561141968
      ],
      "translation": [
        5.704141139984131,
        8.020027160644531,
        -1.0066827535629272
      ]
    },
    {
      "children": [
        40,
        41
      ],
      "name": "arm_stretchl_32",
      "rotation": [
        -0.5581458210945129,
        0.1471594125032425,
        0.09381330013275146,
        0.8111821413040161
      ],
      "scale": [
        1.0,
        1.0000001192092896,
        1.0
      ],
      "translation": [
        -8.960938089330739e-07,
        19.748769760131836,
        0.0
      ]
    },
    {
      "name": "arm_twistl_31",
      "rotation": [
        -2.2925686238295384e-08,
        -6.461281731873214e-09,
        -1.962968099178397e-08,
        1.0
      ],
      "scale": [
        1.0,
        0.9999999403953552,
        1.0
      ],
      "translation": [
        7.283963441295782e-06,
        1.6794554539956152e-05,
        -5.440048880700488e-06
      ]
    },
    {
      "children": [
        42,
        43
      ],
      "name": "forearm_stretchl_30",
      "rotation": [
        -2.3145867444895885e-08,
        9.636296738335659e-08,
        -0.9124755263328552,
        0.4091314673423767
      ],
      "scale": [
        1.0,
        0.9999999403953552,
        1.0
      ],
      "translation": [
        7.613642992509995e-06,
        33.55108642578125,
        -6.687835139018716e-06
      ]
    },
    {
      "name": "forearm_twistl_9",
      "rotation": [
        5.1194820827049625e-08,
        0.2672343850135803,
        2.7877455011093843e-08,
        0.9636315703392029
      ],
      "scale": [
        0.9999999403953552,
        1.0000001192092896,
        0.9999998211860657
      ],
      "translation": [
        3.4812128433259204e-06,
        16.8675594329834,
        4.510032795224106e-06
      ]
    },
    {
      "children": [
        44,
        47,
        51,
        55,
        59
      ],
      "name": "handl_29",
      "rotation": [
        -0.38024482131004333,
        -0.28048864006996155,
        0.15545500814914703,
        0.867510199546814
      ],
      "translation": [
        -0.9364066123962402,
        33.598514556884766,
        2.4143729209899902
      ]
    },
    {
      "children": [
        45
      ],
      "name": "thumb1l_16",
      "rotation": [
        0.2192799597978592,
        0.5846318602561951,
        -0.38752949237823486,
        0.6781909465789795
      ],
      "scale": [
        1.0,
        0.9999999403953552,
        0.9999998211860657
      ],
      "translation": [
        4.713386058807373,
        6.335454940795898,
        -0.24747860431671143
      ]
    },
    {
      "children": [
        46
      ],
      "name": "thumb2l_15",
      "rotation": [
        -0.22834430634975433,
        -0.11669337004423141,
        0.03981031849980354,
        0.9657415151596069
      ],
      "scale": [
        0.9999998211860657,
        0.9999998807907104,
        1.0
      ],
      "translation": [
        7.290032044693362e-06,
        7.482705593109131,
        9.553878953738604e-06
      ]
    },
    {
      "name": "thumb3l_14",
      "scale": [
        1.0000001192092896,
        1.0,
        0.9999998807907104
      ],
      "translation": [
        -1.003205034066923e-05,
        3.5741424560546875,
        7.066454145387979e-06
      ]
    },
    {
      "children": [
        48
      ],
      "name": "XL2_20",
      "rotation": [
        0.024349525570869446,
        0.0002683551574591547,
        0.011021485552191734,
        0.9996427297592163
      ],
      "scale": [
        0.9999999403953552,
        0.9999999403953552,
        1.0
      ],
      "translation": [
        2.3331363201141357,
        5.135138511657715,
        -0.25851768255233765
      ]
    },
    {
      "children": [
        49
      ],
      "name": "index1_basel_19",
      "rotation": [
        0.017280204221606255,
        -0.0027401249390095472,
        -0.021874042227864265,
        0.9996076226234436
      ],
      "scale": [
        0.9999999403953552,
        0.9999999403953552,
        0.9999999403953552
      ],
      "translation": [
        3.856110879496555e-07,
        8.281895637512207,
        3.0369130854523974e-07
      ]
    },
    {
      "children": [
        50
      ],
      "name": "index1l_18",
      "rotation": [
        -0.17387452721595764,
        0.00458441162481904,
        0.01654788851737976,
        0.9846181273460388
      ],
      "scale": [
        0.9999999403953552,
        0.9999999403953552,
        0.9999999403953552
      ],
      "translation": [
        -2.6324394184484845e-06,
        4.886952877044678,
        7.65154027249082e-07
      ]
    },
    {
      "name": "index2l_17",
      "rotation": [
        0.1040995717048645,
        -0.001255289651453495,
        -0.009458581916987896,
        0.9945212006568909
      ],
      "scale": [
        1.0000001192092896,
        0.9999999403953552,
        1.0
      ],
      "translation": [
        3.9715278035146184e-06,
        4.909907817840576,
        -6.643333108513616e-06
      ]
    },
    {
      "children": [
        52
      ],
      "name": "XL3_13",
      "rotation": [
        0.0077855270355939865,
        0.0002976500545628369,
        0.038227781653404236,
        0.9992386698722839
      ],
      "scale": [
        1.0,
        0.9999999403953552,
        1.0000001192092896
      ],
      "translation": [
        0.6341615319252014,
        5.201869010925293,
        -0.12934382259845734
      ]
    },
    {
      "children": [
        53
      ],
      "name": "middle1_basel_12",
      "rotation": [
        0.08724211901426315,
        -0.008463654667139053,
        -0.035127539187669754,
        0.9955317378044128
      ],
      "scale": [
        1.0,
        1.0,
        0.9999999403953552
      ],
      "translation": [
        -3.2563673357799416e-06,
        8.301382064819336,
        -6.4457285589014646e-06
      ]
    },
    {
      "children": [
        54
      ],
      "name": "middle1l_11",
      "rotation": [
        -0.18824604153633118,
        -0.0016282806172966957,
        0.020048510283231735,
        0.9819158911705017
      ],
      "translation": [
        4.984458882972831e-06,
        5.579136371612549,
        7.159788310673321e-06
      ]
    },
    {
      "name": "middle2l_10",
      "rotation": [
        -0.2017654925584793,
        -0.0012973037082701921,
        0.024340709671378136,
        0.9791305065155029
      ],
      "scale": [
        1.0,
        0.9999999403953552,
        0.9999999403953552
      ],
      "translation": [
        -3.128405751340324e-06,
        4.75883150100708,
        -1.2174452422186732e-05
      ]
    },
    {
      "children": [
        56
      ],
      "name": "XL0_28",
      "rotation": [
        -0.015741799026727676,
        -0.0008512856438755989,
        0.05399255454540253,
        0.9984169006347656
      ],
      "scale": [
        1.0,
        0.9999998807907104,
        1.0000001192092896
      ],
      "translation": [
        -0.5914074182510376,
        4.576526641845703,
        -0.1249583512544632
      ]
    },
    {
      "children": [
        57
      ],
      "name": "ring1_basel_27",
      "rotation": [
        0.10425634682178497,
        -0.009646102786064148,
        -0.056427039206027985,
        0.9929016828536987
      ],
      "scale": [
        1.0000001192092896,
        1.0000001192092896,
        1.0
      ],
      "translation": [
        -1.4590629007216194e-06,
        8.79267406463623,
        -8.264388270617928e-06
      ]
    },
    {
      "children": [
        58
      ],
      "name": "ring1l_26",
      "rotation": [
        -0.18824604153633118,
        -0.0016282806172966957,
        0.020048510283231735,
        0.9819158911705017
      ],
      "scale": [
        1.0000001192092896,
        1.0000001192092896,
        0.9999999403953552
      ],
      "translation": [
        -2.3397741699682229e-07,
        4.5164666175842285,
        -2.8493360559878056e-07
      ]
    },
    {
      "name": "ring2l_25",
      "rotation": [
        0.10393527150154114,
        0.0012725827982649207,
        -0.011120257899165154,
        0.9945210814476013
      ],
      "scale": [
        0.9999999403953552,
        0.9999998807907104,
        0.9999999403953552
      ],
      "translation": [
        1.4286285932030296e-07,
        4.4412760734558105,
        -5.4000083764549345e-06
      ]
    },
    {
      "children": [
        60
      ],
      "name": "XL1_24",
      "rotation": [
        -0.050311002880334854,
        -0.005589204374700785,
        0.11027250438928604,
        0.9926114678382874
      ],
      "scale": [
        1.0,
        1.0,
        0.9999999403953552
      ],
      "translation": [
        -1.4750162363052368,
        2.949943780899048,
        -0.14851616322994232
      ]
    },
    {
      "children": [
        61
      ],
      "name": "pinky1_basel_23",
      "rotation": [
        0.06648845970630646,
        -0.023845016956329346,
        -0.06928380578756332,
        0.9950932860374451
      ],
      "scale": [
        1.000000238418579,
        1.0000001192092896,
        0.9999999403953552
      ],
      "translation": [
        -1.058126031239226e-06,
        10.086159706115723,
        -1.192022864415776e-06
      ]
    },
    {
      "children": [
        62
      ],
      "name": "pinky1l_22",
      "rotation": [
        -0.15211480855941772,
        -0.008172054775059223,
        0.020009851083159447,
        0.9881264567375183
      ],
      "scale": [
        0.9999998807907104,
        1.0000001192092896,
        0.9999999403953552
      ],
      "translation": [
        -3.4817335290426854e-06,
        0.6111689209938049,
        7.593077953060856e-06
      ]
    },
    {
      "name": "pinky2l_21",
      "rotation": [
        -0.04322628676891327,
        0.002001076005399227,
        0.0060330708511173725,
        0.999045193195343
      ],
      "scale": [
        0.9999999403953552,
        1.0,
        1.0
      ],
      "translation": [
        1.3518210835172795e-05,
        4.7423319816589355,
        -1.3136987945472356e-05
      ]
    },
    {
      "children": [
        64,
        65
      ],
      "name": "thigh_stretchl_67",
      "rotation": [
        0.7755729556083679,
        0.08862338215112686,
        0.5968499779701233,
        0.18547937273979187
      ],
      "scale": [
        1.0000100135803223,
        1.000000238418579,
        1.000000238418579
      ],
      "translation": [
        11.984169006347656,
        -1.4448204410655308e-07,
        -4.077503035659902e-05
      ]
    },
    {
      "name": "thigh_twistl_62",
      "rotation": [
        -9.83630243922562e-09,
        -3.9875619251006356e-08,
        6.3841660846719606e-09,
        1.0
      ],
      "scale": [
        1.0000001192092896,
        1.0,
        1.0000001192092896
      ],
      "translation": [
        8.536115814195e-08,
        3.0755454645259306e-05,
        4.429412570061686e-07
      ]
    },
    {
      "children": [
        66,
        68
      ],
      "name": "leg_stretchl_66",
      "rotation": [
        -0.09236244857311249,
        0.03812913969159126,
        0.24490153789520264,
        0.9643850922584534
      ],
      "scale": [
        1.0,
        0.9999999403953552,
        1.0
      ],
      "translation": [
        -2.9061169470878667e-07,
        56.37846755981445,
        -5.570310577240889e-07
      ]
    },
    {
      "children": [
        67
      ],
      "name": "footl_65",
      "rotation": [
        0.4005613625049591,
        0.5422899723052979,
        -0.32853221893310547,
        0.6614671349525452
      ],
      "scale": [
        0.9999999403953552,
        1.0,
        1.0
      ],
      "translation": [
        -3.1105690823096666e-07,
        57.646331787109375,
        8.908987751965469e-07
      ]
    },
    {
      "name": "toes_01l_64",
      "rotation": [
        -6.958055820405207e-08,
        0.9898360967636108,
        0.1422135829925537,
        3.0297517241706373e-06
      ],
      "scale": [
        1.0000001192092896,
        0.9999997615814209,
        1.0
      ],
      "translation": [
        1.969898448805907e-06,
        24.642101287841797,
        3.419773975110729e-07
      ]
    },
    {
      "name": "leg_twistl_63",
      "rotation": [
        6.3362586288917555e-09,
        -4.667112474265878e-09,
        -2.0575803283406913e-09,
        1.0
      ],
      "scale": [
        0.9999999403953552,
        1.0,
        0.9999999403953552
      ],
      "translation": [
        -7.796467116349959e-07,
        28.823156356811523,
        4.3999276044814906e-07
      ]
    },
    {
      "children": [
        70,
        71
      ],
      "name": "thigh_stretchr_6",
      "rotation": [
        0.7741374969482422,
        -0.03494361788034439,
        -0.6294087767601013,
        0.05774783343076706
      ],
      "scale": [
        0.9999919533729553,
        0.9999998807907104,
        0.9999969005584717
      ],
      "translation": [
        -17.119932174682617,
        0.0,
        5.0100949010811746e-05
      ]
    },
    {
      "name": "thigh_twistr_1",
      "rotation": [
        4.6465478931168036e-07,
        6.240509975441455e-08,
        -9.079059992700422e-08,
        1.0
      ],
      "scale": [
        1.0,
        1.0,
        0.9999999403953552
      ],
      "translation": [
        8.33673584565986e-06,
        -7.740276259937673e-07,
        -3.1445379136130214e-06
      ]
    },
    {
      "children": [
        72,
        74
      ],
      "name": "leg_stretchr_5",
      "rotation": [
        -0.030986249446868896,
        0.06657441705465317,
        -0.10498442500829697,
        0.9917591214179993
      ],
      "scale": [
        0.9999999403953552,
        1.0,
        0.9999999403953552
      ],
      "translation": [
        1.4741905260962085e-06,
        56.65496826171875,
        -1.3354792827158235e-07
      ]
    },
    {
      "children": [
        73
      ],
      "name": "footr_3",
      "rotation": [
        0.16842679679393768,
        -0.45577099919319153,
        0.4390295743942261,
        0.7557502388954163
      ],
      "scale": [
        1.0000001192092896,
        1.0000001192092896,
        1.0000001192092896
      ],
      "translation": [
        -9.393295954396308e-07,
        57.27227020263672,
        1.4956627865103655e-06
      ]
    },
    {
      "name": "toes_01r_2",
      "rotation": [
        6.199142035256955e-07,
        0.9945325255393982,
        0.1044275090098381,
        3.513623823891976e-06
      ],
      "translation": [
        -4.039865416416433e-06,
        24.245229721069336,
        5.724322363676038e-06
      ]
    },
    {
      "name": "leg_twistr_4",
      "rotation": [
        4.6747939563829277e-07,
        8.201526924267455e-08,
        -1.3119641550929373e-07,
        1.0
      ],
      "scale": [
        1.000000238418579,
        0.9999998211860657,
        1.0
      ],
      "translation": [
        -2.786309050861746e-05,
        28.636133193969727,
        0.00013376842252910137
      ]
    },
    {
      "children": [
        76
      ],
      "matrix": [
        0.99805775651151,
        0.011205427995740699,
        -0.0612793036076932,
        0.0,
        0.06074258429770926,
        0.04321109020439464,
        0.9972176994699721,
        0.0,
        0.01382219664334348,
        -0.9990031231516647,
        0.04244651709119139,
        0.0,
        -0.5865373038893803,
        128.75301646099646,
        -18.291775293007912,
        1.0
      ],
      "name": "LoadedModel_0_correction"
    },
    {
      "matrix": [
        3.37174793862971e-07,
        1.6724899139341145e-16,
        -0.9999999999999432,
        0.0,
        -7.549786702212071e-08,
        0.9999999999999971,
        -2.5288728760665843e-14,
        0.0,
        0.9999999999999403,
        7.549786702212495e-08,
        3.37174793862971e-07,
        0.0,
        0.0,
        125.0,
        0.0,
        1.0
      ],
      "name": "LoadedModel_0"
    },
    {
      "mesh": 0,
      "name": "Object_77",
      "skin": 0
    }
  ],
  "samplers": [
    {
      "magFilter": 9729,
      "minFilter": 9987,
      "wrapS": 10497,
      "wrapT": 10497
    }
  ],
  "scene": 0,
  "scenes": [
    {
      "name": "Sketchfab_Scene",
      "nodes": [
        0
      ]
    }
  ],
  "skins": [
    {
      "inverseBindMatrices": 4,
      "joints": [
        6,
        7,
        8,
        9,
        10,
        11,
        12,
        13,
        14,
        15,
        16,
        17,
        18,
        19,
        20,
        21,
        22,
        23,
        24,
        25,
        26,
        27,
        28,
        29,
        30,
        31,
        32,
        33,
        34,
        35,
        36,
        37,
        38,
        39,
        40,
        41,
        42,
        43,
        44,
        45,
        46,
        47,
        48,
        49,
        50,
        51,
        52,
        53,
        54,
        55,
        56,
        57,
        58,
        59,
        60,
        61,
        62,
        63,
        64,
        65,
        66,
        67,
        68,
        69,
        70,
        71,
        72,
        73,
        74
      ],
      "skeleton": 6
    }
  ],
  "textures": [
    {
      "sampler": 0,
      "source": 0
    }
  ]
}
